<?xml version="1.0" encoding="UTF-8"?>
<svg id="_レイヤー_1" xmlns="http://www.w3.org/2000/svg" version="1.1" viewBox="0 0 512 512">
  <!-- Generator: Adobe Illustrator 29.1.0, SVG Export Plug-In . SVG Version: 2.1.0 Build 142)  -->
  <defs>
    <style>
      .st0 {
        fill: #534945;
      }

      .st1 {
        fill: #fbf3e4;
      }
    </style>
  </defs>
  <rect class="st1" x="0" y="0" width="512" height="512" rx="60" ry="60"/>
  <g>
    <path class="st0" d="M398.8,86.4c24.2,45.4,18.3,100.6-6.5,144.4,12.1,27.5,26.4,53.9,42.4,79.3,1,3.9-.5,8.6-4.8,9.3,3,1.6.1,6.4-2,7.5-4.1,2.1-8.8-2.5-13-2.5v-3c2.5,1,14.8-8,14-9-24.1-7.8-36.7-28.5-60.7-37.8-54.4-21-96.8,11.9-106.2,65.7,23,5.3,13.9,20.9-3.9,24.2-.4,7.8-2.2,17.7,9.2,14.7s6.9-11.3,12.8-9.3c.8,6.8-11,15.1-17.2,14.3-2.3-.3-5.2-2.7-7.1-2.6s-4.4,2.6-7.1,2.6c-6.4.1-15.6-6.9-16.5-13.3s2.9-1.7,4-1c1.9,1.2,3.2,7.8,9.7,9.3,11.1,2.5,8.1-7.3,8.2-14.7-15.6-2.4-27.3-17.9-5.8-23.7.8-2.9-4.4-18.4-5.9-22.1-19.1-48.7-64.4-61.3-109.9-37.5-17,8.9-29.8,24.4-48.3,30.7l14,16c1.2,2.8-6.8,2.1-8,3,85.8,87.3,244.3,95.6,332,7l-14-3c2.6-1.7,16-7.7,17.9-6.4l4,6.6c.9,3.4-10.9,14.1-13.8,16.8-69.7,62.9-184.2,69.1-266.4,28.4-16.9-8.4-56.2-33.7-66.1-48.9-4.1-6.4,2.9-6.5,2.4-9.3l-8.4-10.5c10-28.6,28.5-54.1,41.3-81.8-23-43.1-31-99.3-4.8-142.9,36.6,5.7,68.1,29.4,88.7,59.4,11.7-2.5,23-6.3,35-7.8,17.4-2.2,34.4-1.4,51.5,2.2,4.1.8,17.4,5.7,19.3,5.7s12-14.7,14.5-17.5c19.1-21.6,47.3-37.7,75.9-42.5ZM380.6,117.5c-2.3-2.2-7.4.2-10.2,1.1-9.9,3.4-33.5,18.8-40.3,28.3s-3.7,5.3-2.1,8.3c2.3-1.8,1.7.5,3.8,1.8,13.5,8.3,26.6,20.9,37.1,33.8,1.5,1.9,8.5,13.6,10,12.5,10.5-24.9,13.4-53.9,4.2-79.6-.5-1.4-1.6-1.3-1.8-1.9-.4-.9-.4-4.1-.6-4.3ZM182.2,147.9c-9.9-12-27.2-26-42.6-29.9s-5,.6-7.8,3.9-2.5,1-3.3,2.7c-5.6,11.8-5.5,39-3.4,52s5.4,22.9,7.7,24.3,2.1,0,3.1-1c3.3-2.9,7.1-9.8,10.4-13.6,11.3-12.7,25.1-24.6,40.5-32-.6-3.2-3.1-4.5-4.6-6.3Z"/>
    <path class="st0" d="M323.6,292.5c28.4-5.9,31.6,39.4,1.8,35.8-19-2.3-19.7-32.1-1.8-35.8ZM339.6,308.1c4.7-4.7-1.8-14.1-8.3-9.8-8.2,5.4,2.3,15.9,8.3,9.8Z"/>
    <path class="st0" d="M180.7,292.5c22.8-2.8,26.3,32.4,5.7,35.7-26.9,4.3-29.7-32.7-5.7-35.7ZM181.6,299.6c-6.4-6.4-16.6,4.7-9.4,10.4,6.6,5.3,15.6-4.2,9.4-10.4Z"/>
    <path class="st0" d="M175.6,345.5c8.6,8.5-20.6,12.3-22.7,4.1s18.7-8,22.7-4.1Z"/>
    <path class="st0" d="M340.6,343.5c5.5-.9,12.2-.6,16.8,2.7,5.9,9.4-26.7,10.9-23.4.7,1.2-1.9,4.5-3.1,6.6-3.4Z"/>
    <path class="st0" d="M358.5,292.6c.9,1,1.5,2.3,1.3,3.7-2.1,1.9-16.9-10-21.4-9-1.7-1-.6-3.8,1.8-4,3.8-.3,15.7,6.3,18.3,9.3Z"/>
    <path class="st0" d="M173.9,284.3l-.6,3.1c-7.2.3-12.7,6.9-18.7,9.1s-1.2,1.2-2.7-.7c-.8-3.9,17.5-14.2,22-11.5Z"/>
  </g>
</svg>